<svg xmlns="http://www.w3.org/2000/svg" width="900" height="900" style="shape-rendering:geometricPrecision;text-rendering:geometricPrecision;image-rendering:optimizeQuality;fill-rule:evenodd;clip-rule:evenodd"><path style="opacity:.965" fill="#690f0c" d="M12.5 2.5h874c.008 59.708.008 119.208 0 178.5-291 .667-582 .667-873 0a7988.565 7988.565 0 0 1-1-178.5z"/><path style="opacity:1" fill="#fdfdfe" d="M859.5 153.5h-819c.332-40.503-.001-80.837-1-121v-3h820v124z"/><path style="opacity:1" fill="#0a2963" d="M263.5 55.5c12.406-1.588 22.906 2.079 31.5 11 2.897 4.588 4.397 9.588 4.5 15h-15c.66-4.847-1.007-8.68-5-11.5-4.911-1.492-9.911-1.826-15-1-3.558 1.892-6.058 4.725-7.5 8.5a112.26 112.26 0 0 0-1 29c3.801 11.997 11.634 15.497 23.5 10.5 3.312-3.099 4.979-6.933 5-11.5h15c-1.043 13.88-8.377 22.38-22 25.5-21.361 2.319-33.861-7.181-37.5-28.5-2.144-12.947.19-24.947 7-36 4.688-5.08 10.188-8.746 16.5-11zM331.5 55.5c12.406-1.588 22.906 2.079 31.5 11 3.021 4.562 4.521 9.562 4.5 15h-15c.66-4.847-1.007-8.68-5-11.5-4.911-1.492-9.911-1.826-15-1-3.558 1.892-6.058 4.725-7.5 8.5a104.935 104.935 0 0 0-1 28c3.163 12.947 10.996 16.78 23.5 11.5 3.312-3.099 4.979-6.933 5-11.5h15c-1.014 13.854-8.348 22.354-22 25.5-23.233 1.778-35.733-9.056-37.5-32.5-3.028-20.631 4.805-34.965 23.5-43z"/><path style="opacity:1" fill="#052761" d="M144.5 87.5c1.143-3.476 1.31-7.142.5-11l-1.5 3a1157.061 1157.061 0 0 0-18 51h-11a1640.742 1640.742 0 0 0-18-51l-1.5-3c-.812 4.189-.645 8.189.5 12a607.22 607.22 0 0 1 1 42h-15v-74c6.7-.33 13.367.003 20 1a4812.189 4812.189 0 0 0 18.5 52 4812.189 4812.189 0 0 0 18.5-52c6.634-.997 13.3-1.33 20-1v74h-15a600.334 600.334 0 0 1 1-43z"/><path style="opacity:1" fill="#072762" d="M194.5 56.5c4.93-.303 9.763.03 14.5 1a1659.36 1659.36 0 0 1 26.5 73h-16a55.897 55.897 0 0 0-4-14 98.524 98.524 0 0 0-28 0 109.58 109.58 0 0 0-4 14h-16a1726.28 1726.28 0 0 1 27-74z"/><path style="opacity:1" fill="#032660" d="M378.5 56.5h15v62h32v12h-47v-74z"/><path style="opacity:1" fill="#01245f" d="M450.5 98.5c-.991 6.479-1.324 13.146-1 20h34v12h-49v-74h49v12h-34v18h29v12h-28z"/><path style="opacity:1" fill="#062761" d="M515.5 55.5c12.815-1.34 22.648 3.326 29.5 14a21.339 21.339 0 0 1 1.5 9h-15c-.97-7.761-5.47-11.428-13.5-11-7.282.275-10.616 3.942-10 11 1.765 2.973 4.265 5.14 7.5 6.5a148.745 148.745 0 0 1 22 9c11.2 10.005 11.867 20.671 2 32-10.839 6.07-22.173 7.07-34 3-9.978-3.795-14.978-10.962-15-21.5h15c-.279 5.887 2.388 9.72 8 11.5 6.215 1.54 11.715.373 16.5-3.5 2.367-4.499 1.533-8.332-2.5-11.5a133.863 133.863 0 0 1-28-13c-8.354-8.415-9.188-17.581-2.5-27.5 5.386-4.731 11.553-7.398 18.5-8z"/><path style="opacity:1" fill="#0b2963" d="M604.5 68.5h-33v20h30v9a229.162 229.162 0 0 1-29 3v30h-16v-74h49c.317 4.202-.017 8.202-1 12z"/><path style="opacity:1" fill="#152e67" d="M614.5 56.5h16v74h-16v-74z"/><path style="opacity:1" fill="#012560" d="M644.5 56.5h49v12h-34v18h29v12h-29v20h34v12h-49v-74z"/><path style="opacity:1" fill="#052761" d="M717.5 56.5v62h32c.983 3.798 1.317 7.798 1 12h-48v-74h15z"/><path style="opacity:1" fill="#9eaac0" d="M717.5 56.5a931.31 931.31 0 0 1 1 61c10.514-.328 20.847.006 31 1h-32v-62z"/><path style="opacity:1" fill="#042661" d="M759.5 56.5c9.672-.166 19.339 0 29 .5 18.434 4.85 27.434 16.85 27 36 .289 19.803-9.045 32.136-28 37-9.327.5-18.661.666-28 .5v-74z"/><path style="opacity:1" fill="#7184a6" d="M604.5 68.5c-10.487.994-21.154 1.328-32 1v18c9.848-.327 19.514.006 29 1h-30v-20h33z"/><path style="opacity:1" fill="#4c658f" d="M786.5 69.5h-12v49a625.3 625.3 0 0 1-1-50c4.532-.318 8.866.015 13 1z"/><path style="opacity:1" fill="#fdfdfd" d="M786.5 69.5c6.25 1.749 10.417 5.749 12.5 12a121.19 121.19 0 0 1 0 22c-3.503 12.256-11.67 17.256-24.5 15v-49h12z"/><path style="opacity:1" fill="#edeef3" d="M200.5 76.5c.997-.03 1.664.47 2 1.5a375.419 375.419 0 0 1 8 25.5h-18a438.596 438.596 0 0 1 8-27z"/><path style="opacity:1" fill="#546b93" d="M144.5 87.5c.306-2.885-.027-5.552-1-8l1.5-3c.81 3.858.643 7.524-.5 11z"/><path style="opacity:1" fill="#566c94" d="M96.5 79.5c-.977 2.787-1.31 5.787-1 9-1.145-3.811-1.312-7.811-.5-12l1.5 3z"/><path style="opacity:1" fill="#355180" d="M601.5 97.5v3h-29a229.162 229.162 0 0 0 29-3z"/><path style="opacity:1" fill="#bcc1cf" d="M450.5 98.5v19h34c.318 4.532-.015 8.866-1 13v-12h-34c-.324-6.854.009-13.521 1-20z"/><path style="opacity:1" fill="#caaaa9" d="M39.5 32.5a3660.929 3660.929 0 0 1 1 121h819c-273.166 1-546.499 1.333-820 1v-122z"/><path style="opacity:.969" fill="#680e0b" d="M478.5 899.5h-57c-66.912-5.136-129.578-24.303-188-57.5-46.455-29.455-84.621-67.288-114.5-113.5-48.616-75.151-79.95-157.151-94-246a1127.67 1127.67 0 0 1-14.5-189 3792.05 3792.05 0 0 1 2.5-91c290.764-1 581.597-1.333 872.5-1a2345.586 2345.586 0 0 1-8.5 221c-7.14 81.229-26.807 159.229-59 234C762.293 773.524 672.126 850.357 547.5 887c-22.869 5.698-45.869 9.865-69 12.5z"/><path style="opacity:1" fill="#fdfdfd" d="M857.5 284.5a1947.82 1947.82 0 0 0-3 70v8a352.57 352.57 0 0 0-3 40v1c-.617.111-1.117.444-1.5 1a98.432 98.432 0 0 0-.5 14v3c-1.818 8.091-2.818 16.424-3 25a468.564 468.564 0 0 0-4 29c-1.413 2.719-2.08 5.719-2 9a1003 1003 0 0 1-12 60c-1.972 2.584-2.972 5.584-3 9a444.293 444.293 0 0 1-18 56c-1.424 2.015-2.09 4.348-2 7-48.009 122.188-134.343 203.021-259 242.5a924.242 924.242 0 0 0-23 5.5c-4.651.127-8.985 1.127-13 3a120.618 120.618 0 0 0-21 3.5 112.97 112.97 0 0 1-15 .5c-21.673.015-43.34-.318-65-1-4.419-1.472-9.086-2.138-14-2h-2c-3.345-1.717-7.011-2.384-11-2h-3c-1.602-1.574-3.602-2.241-6-2a192.843 192.843 0 0 1-36-8c-3.585-2.306-7.585-3.639-12-4a215.443 215.443 0 0 1-41-15 1666.011 1666.011 0 0 0-17-10 9.108 9.108 0 0 0-5-1c-17.7-9.045-34.034-20.045-49-33-2.463-3.8-5.796-6.467-10-8-31.928-29.846-58.594-63.846-80-102 .073-1.527-.594-2.527-2-3l-1-2a598.896 598.896 0 0 0-3-6c.073-1.527-.594-2.527-2-3-18.24-34.154-32.907-69.821-44-107-.223-3.662-1.223-6.995-3-10a551.042 551.042 0 0 1-15-67c-.587-5.537-1.587-10.87-3-16v-3c-.253-3.54-.92-6.873-2-10v-2a406.954 406.954 0 0 0-5-36 343.09 343.09 0 0 1-2-30c-.394-6.996-.727-13.996-1-21 .258-10.876-.408-21.542-2-32-.33-35.573.004-71.073 1-106.5 272.666-.5 545.333-.667 818-.5v56z"/><path style="opacity:1" fill="#8897b3" d="M672.5 268.5c4.146-1.147 8.48-1.314 13-.5.556.383.889.883 1 1.5a82.73 82.73 0 0 0-14-1z"/><path style="opacity:1" fill="#022560" d="M672.5 268.5a82.73 82.73 0 0 1 14 1 299.629 299.629 0 0 1 39 13.5 926.308 926.308 0 0 1 22 5.5c4.066 1.322 8.233 1.322 12.5 0 .464.594.631 1.261.5 2a2435.887 2435.887 0 0 1-35 57 19.552 19.552 0 0 0-4 3.5 98.432 98.432 0 0 1-14 .5 114.302 114.302 0 0 0-13-6c-1.533-1.745-3.533-2.745-6-3a502.192 502.192 0 0 0-39-16.5c-5.128-1.332-9.461-.165-13 3.5-6.098 3.827-11.098 8.827-15 15-17.576 24.179-28.909 51.179-34 81-1.75 3.683-2.417 7.683-2 12v2c-1.535 7.941-2.202 16.108-2 24.5.001 6.01.334 11.843 1 17.5.982 3.462 1.315 7.129 1 11a21.69 21.69 0 0 1-2 10.5c2.638 4.29 4.638 8.457 6 12.5a1672.151 1672.151 0 0 0 11.5 37 24.598 24.598 0 0 1 5.5 10c1.101 4.756 3.434 8.756 7 12 4.249 7.297 9.583 13.797 16 19.5 6.775 5.445 13.775 5.779 21 1a1453.784 1453.784 0 0 1 35-30.5c1.871-.359 3.371-1.359 4.5-3 .828-14.839.661-29.506-.5-44v-2c.329-2.728-.337-5.062-2-7-1.096-4.858-3.262-9.191-6.5-13a117.04 117.04 0 0 0-14.5-15 809.08 809.08 0 0 0 45.5-61l6-6a605.232 605.232 0 0 1 37 45l5 4a3261.157 3261.157 0 0 1 1 161c-1.802 1.289-2.969 2.956-3.5 5-2.087 1.085-3.42 2.751-4 5a9867.175 9867.175 0 0 1-16 23c-2.497.629-3.83 2.296-4 5a4466.356 4466.356 0 0 0-73.5 105 50.807 50.807 0 0 0-7.5 4.5c-122.668.833-245.335.667-368-.5a189.169 189.169 0 0 0-10.5-9 3699.163 3699.163 0 0 0-66.5-77.5c1.333-.667 2.667-.667 4 0a35.299 35.299 0 0 0 13 5.5c1.135 1.713 2.802 2.38 5 2 1.49 1.78 3.49 2.446 6 2 6.603 1.494 13.436 2.161 20.5 2 136.664-.644 273.164-1.311 409.5-2a862.268 862.268 0 0 0 23-33c.997-21.16 1.331-42.493 1-64-1.291-.237-2.291.096-3 1a82.928 82.928 0 0 0-9 6.5 649.772 649.772 0 0 0-22 20.5c-4.748 2.382-8.748 5.716-12 10a780.361 780.361 0 0 0-44.5 37c-20.1-14.106-35.1-32.439-45-55-3.05-3.63-6.883-4.797-11.5-3.5a2334.813 2334.813 0 0 1-63 52l-7 3.5a50.464 50.464 0 0 1-10-.5 31.447 31.447 0 0 0-5-4.5 5686.283 5686.283 0 0 1-23-71c-.247-3.354-1.247-6.354-3-9a860.579 860.579 0 0 1-17-50v-3h-67v5c-.617.111-1.117.444-1.5 1a2826.98 2826.98 0 0 1-22.5 70c-2.824 4.13-4.491 8.797-5 14-3.419 13.399-9.253 25.732-17.5 37a89.33 89.33 0 0 1-22.5 13.5 18.453 18.453 0 0 1-6 .5 332.279 332.279 0 0 1-33 1h-4c-3.905-2.376-8.239-3.376-13-3-14.252-4.452-26.919-11.452-38-21-1.333-2-3-3.667-5-5a63.644 63.644 0 0 1-4-6.5c1.356-1.567 2.023-3.4 2-5.5a5.727 5.727 0 0 1 1-3c2.306-3.585 3.639-7.585 4-12l2-7c2.69-3.069 4.023-6.736 4-11a483.226 483.226 0 0 1 7-21c2.334-1.676 3.334-4.009 3-7a29.278 29.278 0 0 1 2.5-7c11.92 16.698 27.754 27.532 47.5 32.5 22.219 4.942 38.386-2.558 48.5-22.5a186.43 186.43 0 0 0 5.5-18c2.106-3.991 3.439-8.324 4-13 2.969-7.395.636-12.062-7-14-4.376-1.638-9.042-2.471-14-2.5-.284-1.956-.284-4.123 0-6.5a106.67 106.67 0 0 0 6.5-23c1.208-3.57 2.708-6.903 4.5-10 8.007.166 16.007 0 24-.5 1.237-.232 2.237-.732 3-1.5 1.29-.558 2.123-1.558 2.5-3a385.29 385.29 0 0 0 11.5-33c1.604-.787 2.271-2.12 2-4v-2c4.175-5.212 6.509-11.212 7-18a450.945 450.945 0 0 1 11-32c1.574-1.602 2.241-3.602 2-6v-1c1.745-1.533 2.745-3.533 3-6a31.625 31.625 0 0 1 2-7.5 867.321 867.321 0 0 1-10-28 12.01 12.01 0 0 1 2.5-5.5 292.803 292.803 0 0 0 13.5-16c2.4-1.796 4.067-4.13 5-7a49800.163 49800.163 0 0 1 33-42c1.93.271 3.264 1.271 4 3a1351.712 1351.712 0 0 0 13 40c.709 5.459 2.375 10.459 5 15l4 13c.403 2.986 1.403 5.652 3 8v1a87.232 87.232 0 0 0 5 14 103.745 103.745 0 0 1 3 11c.361 4.415 1.694 8.415 4 12a1304.575 1304.575 0 0 0 14 43c.554 3.246 1.554 6.246 3 9 2.078 4.009 3.411 8.342 4 13 .588 2.563 1.588 4.896 3 7l33 98c.223 3.662 1.223 6.995 3 10l4.5 9c.91 5.16 2.41 10.16 4.5 15 3.792.977 7.458.477 11-1.5a30.224 30.224 0 0 0 5-10.5c1.402-3.79 1.069-7.456-1-11a80.698 80.698 0 0 1-3-14 719.188 719.188 0 0 0-6-28v-3c-.612-10.568-1.945-20.901-4-31v-4a510.54 510.54 0 0 1 1-42c1.512-5.429 2.179-11.096 2-17 1.842-3.659 2.842-7.659 3-12a19.22 19.22 0 0 1 1-6c.617-.111 1.117-.444 1.5-1a31.568 31.568 0 0 1 2.5-9c7.793-18.93 18.126-36.264 31-52a39.46 39.46 0 0 0 10-11 70.851 70.851 0 0 1 10-10c3.6-1.93 6.6-4.597 9-8 23.745-23.046 50.745-41.379 81-55z"/><path style="opacity:1" fill="#6b1411" d="M91.5 428.5c36.233 16.779 72.566 33.612 109 50.5 1.667.667 3.333.667 5 0a149.055 149.055 0 0 0 19-8.5c2.467-.255 4.467-1.255 6-3a2783.11 2783.11 0 0 0 82-38 6321.844 6321.844 0 0 0 1-159h9c.264 55.717-.069 111.05-1 166a18837.164 18837.164 0 0 0-117.5 55 3801.493 3801.493 0 0 1-61.5-28 20.673 20.673 0 0 1-3.5-4c-1.66-.666-3.494-.666-5.5 0a8054.842 8054.842 0 0 1-48-22 29.048 29.048 0 0 0-4.5-3c-.5-54.666-.667-109.332-.5-164 3.228-.914 6.561-1.247 10-1a6320.895 6320.895 0 0 0 1 159z"/><path style="opacity:1" fill="#b28382" d="M91.5 428.5a6320.895 6320.895 0 0 1-1-159c-3.439-.247-6.772.086-10 1v-1c3.462-.982 7.129-1.315 11-1v160z"/><path style="opacity:1" fill="#64789d" d="M412.5 276.5c-.736-1.729-2.07-2.729-4-3a7.47 7.47 0 0 1 2-3c1.586 1.673 2.253 3.673 2 6z"/><path style="opacity:1" fill="#711d18" d="M100.5 268.5a2837.81 2837.81 0 0 1 17 8l-6 2-7-2v145a213.18 213.18 0 0 1 19 6.5 3095.332 3095.332 0 0 1 80.5 35.5 2431.952 2431.952 0 0 0 94.5-42c1.527.073 2.527-.594 3-2a2704.72 2704.72 0 0 0 1-104v-36h-4c-3.357-.769-3.69-2.436-1-5a26.335 26.335 0 0 0 5-2h4v151a3403.381 3403.381 0 0 1-103 45c-34.685-15.01-69.352-30.01-104-45a6007.068 6007.068 0 0 1 1-155z"/><path style="opacity:1" fill="#8d4846" d="M322.5 270.5h1c.167 55.001 0 110.001-.5 165-.383.556-.883.889-1.5 1a7657.418 7657.418 0 0 0 1-166z"/><path style="opacity:1" fill="#fbfbfc" d="M111.5 278.5a4159.358 4159.358 0 0 0 92 42l95-40c1.988 19.639 2.655 39.639 2 60v7c.167 24.002 0 48.002-.5 72-.717.544-1.217 1.211-1.5 2a2431.952 2431.952 0 0 1-94.5 42 3095.332 3095.332 0 0 0-80.5-35.5 213.18 213.18 0 0 0-19-6.5v-145l7 2z"/><path style="opacity:1" fill="#caa9a8" d="M306.5 423.5v-151h-4c1.141-.839 2.474-1.506 4-2a2931.746 2931.746 0 0 1 0 153z"/><path style="opacity:1" fill="#cecdd5" d="M80.5 269.5v1c-.167 54.668 0 109.334.5 164a29.048 29.048 0 0 1 4.5 3c-2.082.028-3.916-.639-5.5-2a4597.656 4597.656 0 0 1 .5-166z"/><path style="opacity:1" fill="#4b638e" d="M760.5 290.5a2.428 2.428 0 0 0-.5-2c-4.267 1.322-8.434 1.322-12.5 0a52.341 52.341 0 0 0 13-1c2.029.48 2.029 1.48 0 3z"/><path style="opacity:1" fill="#75231d" d="M297.5 274.5c-2.69 2.564-2.357 4.231 1 5v1l-95 40a4159.358 4159.358 0 0 1-92-42l6-2a8921.214 8921.214 0 0 0 87 39 3304.244 3304.244 0 0 0 93-41z"/><path style="opacity:1" fill="#a97573" d="M323.5 270.5h-10a6321.844 6321.844 0 0 1-1 159v-160c3.871-.315 7.538.018 11 1z"/><path style="opacity:1" fill="#cabcc1" d="M298.5 280.5v-1h4v36l-2 25c.655-20.361-.012-40.361-2-60z"/><path style="opacity:1" fill="#bf9897" d="M857.5 284.5a3830.27 3830.27 0 0 1-1.5 61c-.181 3.195-.681 6.195-1.5 9a1947.82 1947.82 0 0 1 3-70z"/><path style="opacity:1" fill="#6a7da1" d="M425.5 316.5c2.244 4.733 3.911 9.733 5 15-2.625-4.541-4.291-9.541-5-15z"/><path style="opacity:1" fill="#546a93" d="M375.5 315.5c-.933 2.87-2.6 5.204-5 7 .933-2.87 2.6-5.204 5-7z"/><path style="opacity:1" fill="#3e5383" d="M591.5 323.5c-2.4 3.403-5.4 6.07-9 8 2.4-3.403 5.4-6.07 9-8z"/><path style="opacity:1" fill="#143068" d="M150.5 337.5v29a112.97 112.97 0 0 1 15 .5c1.333.667 1.333 1.333 0 2-6.325.5-12.658.666-19 .5v-32c1.333-1.333 2.667-1.333 4 0z"/><path style="opacity:1" fill="#0e2d66" d="M171.5 337.5h3v29a77.772 77.772 0 0 1 17 1v2a116.8 116.8 0 0 1-21-1c-.328-10.514.006-20.847 1-31z"/><path style="opacity:1" fill="#374d7e" d="M216.5 369.5c.166-10.006 0-20.006-.5-30a3.647 3.647 0 0 1-1.5 1 624.355 624.355 0 0 1-2 10c.31-3.213-.023-6.213-1-9h-10v-4h26v4h-10c.327 9.515-.006 18.848-1 28z"/><path style="opacity:1" fill="#526992" d="M252.5 369.5v-14c.666 4.517 1.333 9.183 2 14a120.655 120.655 0 0 0 0-31c-.695 4.213-1.361 8.379-2 12.5-5.849.818-11.515.652-17-.5h16a84.902 84.902 0 0 1 .5-13c1.667-1.333 3.333-1.333 5 0a256.122 256.122 0 0 1 0 32c-1.616 1.301-3.116 1.301-4.5 0z"/><path style="opacity:1" fill="#112f67" d="M286.5 337.5c.934 1.068 1.268 2.401 1 4h-20v9c5.475.989 11.142 1.322 17 1v3c-5.858-.322-11.525.011-17 1v10c5.485.827 11.152 1.327 17 1.5.457.414.791.914 1 1.5a121.862 121.862 0 0 1-22 1v-32h23z"/><path style="opacity:1" fill="#a7b1c6" d="M636.5 329.5a205.685 205.685 0 0 1-15 15c3.902-6.173 8.902-11.173 15-15z"/><path style="opacity:1" fill="#062963" d="M216.5 369.5h-4v-19a624.355 624.355 0 0 0 2-10 3.647 3.647 0 0 0 1.5-1c.5 9.994.666 19.994.5 30z"/><path style="opacity:1" fill="#576e96" d="M171.5 337.5v-1h4v29c5.771-.613 11.104.054 16 2a77.772 77.772 0 0 0-17-1v-29h-3z"/><path style="opacity:1" fill="#65799e" d="M688.5 342.5c2.467.255 4.467 1.255 6 3-2.467-.255-4.467-1.255-6-3z"/><path style="opacity:1" fill="#c9ccd7" d="M171.5 336.5v1c-.994 10.153-1.328 20.486-1 31v1c-.666-5.323-.999-10.823-1-16.5.005-5.876.671-11.376 2-16.5z"/><path style="opacity:1" fill="#d8c6c8" d="M38.5 335.5c1.592 10.458 2.258 21.124 2 32h-1c-.255-10.67-.588-21.336-1-32z"/><path style="opacity:1" fill="#b78b8b" d="M302.5 315.5a2704.72 2704.72 0 0 1-1 104c.331-24.172-.002-48.172-1-72v-7l2-25z"/><path style="opacity:1" fill="#64789d" d="M572.5 341.5a39.46 39.46 0 0 1-10 11 39.312 39.312 0 0 1 10-11z"/><path style="opacity:1" fill="#9faac0" d="M434.5 344.5c1.897 2.198 2.897 4.864 3 8-1.597-2.348-2.597-5.014-3-8z"/><path style="opacity:1" fill="#0e2d66" d="M232.5 337.5h3v13c5.485 1.152 11.151 1.318 17 .5.639-4.121 1.305-8.287 2-12.5a120.655 120.655 0 0 1 0 31c-.667-4.817-1.334-9.483-2-14-5.81-.99-11.81-1.323-18-1 .608 5.444-.058 10.444-2 15a128.532 128.532 0 0 1 0-32z"/><path style="opacity:1" fill="#919eb8" d="M725.5 347.5c-.853 3.018-2.853 4.851-6 5.5-4.281.798-8.281.298-12-1.5a98.432 98.432 0 0 0 14-.5 19.552 19.552 0 0 1 4-3.5z"/><path style="opacity:1" fill="#5a7197" d="M267.5 350.5h18v5h-18c5.475-.989 11.142-1.322 17-1v-3c-5.858.322-11.525-.011-17-1z"/><path style="opacity:1" fill="#213a70" d="M141.5 361.5a24.957 24.957 0 0 0 2 7.5 12.93 12.93 0 0 1-5 .5c-.155-6.379-3.321-9.379-9.5-9-2.424.03-4.757.363-7 1a45.8 45.8 0 0 0-2.5 9h-5a1028.519 1028.519 0 0 1 12-34c1.967-.239 3.801.094 5.5 1 2.319 8.479 5.485 16.479 9.5 24z"/><path style="opacity:1" fill="#e7e8ee" d="M128.5 344.5c.997-.03 1.664.47 2 1.5a58.606 58.606 0 0 0 3 10.5h-9a42.4 42.4 0 0 1 4-12z"/><path style="opacity:1" fill="#a5b0c6" d="M211.5 341.5c.977 2.787 1.31 5.787 1 9v19h4c-1.419.951-3.085 1.284-5 1v-29z"/><path style="opacity:1" fill="#3b5684" d="M232.5 337.5a128.532 128.532 0 0 0 0 32h-2c-.643-11.052.024-21.719 2-32z"/><path style="opacity:1" fill="#ae7c7b" d="M100.5 268.5a6007.068 6007.068 0 0 0-1 155 3047.367 3047.367 0 0 1 0-156c.607.124.94.457 1 1z"/><path style="opacity:1" fill="#6d81a3" d="M252.5 355.5v14c-.986-4.47-1.319-9.137-1-14h-16v15c-1.915.284-3.581-.049-5-1h2c1.942-4.556 2.608-9.556 2-15 6.19-.323 12.19.01 18 1z"/><path style="opacity:1" fill="#a6aec3" d="M437.5 353.5c2.832 4.158 4.499 8.824 5 14a87.232 87.232 0 0 1-5-14z"/><path style="opacity:1" fill="#c2c7d4" d="M146.5 337.5v32c-2.491.775-5.157.775-8 0a12.93 12.93 0 0 0 5-.5 24.957 24.957 0 0 1-2-7.5c1.29.558 2.123 1.558 2.5 3l1-3c.171-8.177.671-16.177 1.5-24z"/><path style="opacity:1" fill="#64799e" d="M150.5 337.5c.994 9.152 1.327 18.485 1 28h16v5c-7.187.325-14.187-.009-21-1 6.342.166 12.675 0 19-.5 1.333-.667 1.333-1.333 0-2a112.97 112.97 0 0 0-15-.5v-29z"/><path style="opacity:1" fill="#8898b4" d="M170.5 368.5a116.8 116.8 0 0 0 21 1c-7 1.333-14 1.333-21 0v-1z"/><path style="opacity:1" fill="#6b7fa2" d="M286.5 337.5h-23v32c7.363.331 14.697-.003 22-1a3.647 3.647 0 0 0-1-1.5c-5.848-.173-11.515-.673-17-1.5h20v5h-25v-34c8.184-.326 16.184.008 24 1z"/><path style="opacity:1" fill="#d6d5dc" d="M300.5 347.5a1296.178 1296.178 0 0 1 1 72c-.473 1.406-1.473 2.073-3 2 .283-.789.783-1.456 1.5-2 .5-23.998.667-47.998.5-72z"/><path style="opacity:1" fill="#60749a" d="M122.5 381.5c3.476-1.143 7.142-1.31 11-.5 1.82.2 3.153 1.034 4 2.5-4.841-1.652-9.841-2.318-15-2z"/><path style="opacity:1" fill="#526992" d="M203.5 383.5c-5.184-2.241-10.518-2.575-16-1 .111-.617.444-1.117 1-1.5 4-.667 8-.667 12 0 1.442.377 2.442 1.21 3 2.5z"/><path style="opacity:1" fill="#a8b4c8" d="M241.5 381.5c7.823-1.156 15.823-1.323 24-.5 1.291 1.292 1.291 2.458 0 3.5.172-.992-.162-1.658-1-2-7.482-.992-15.148-1.325-23-1z"/><path style="opacity:1" fill="#b28180" d="M854.5 362.5c-.094 13.549-1.094 26.882-3 40a352.57 352.57 0 0 1 3-40z"/><path style="opacity:1" fill="#60759b" d="M362.5 379.5c-.255 2.467-1.255 4.467-3 6 .255-2.467 1.255-4.467 3-6z"/><path style="opacity:1" fill="#b48685" d="M39.5 367.5h1c.273 7.004.606 14.004 1 21-1.653-6.762-2.32-13.762-2-21z"/><path style="opacity:1" fill="#243c71" d="M203.5 383.5c2.155 2.117 3.155 4.784 3 8-1.599.268-2.932-.066-4-1 .131-2.867-1.203-4.533-4-5-3.377-1.401-6.71-1.235-10 .5-1.091 2.064-1.258 4.231-.5 6.5 5.84 2.053 11.673 4.053 17.5 6 4.422 8.352 2.088 13.852-7 16.5-9.597 1.868-15.263-1.965-17-11.5 1.478-.262 2.811.071 4 1 .753 2.253 2.086 4.087 4 5.5 3.667.667 7.333.667 11 0 3.527-2.303 3.86-4.97 1-8a161.608 161.608 0 0 1-14-4c-4.569-2.541-6.069-6.375-4.5-11.5.748-2.251 2.248-3.584 4.5-4 5.482-1.575 10.816-1.241 16 1z"/><path style="opacity:1" fill="#153068" d="M231.5 399.5h-15v14h-4v-32c6.342-.166 12.675 0 19 .5a8.905 8.905 0 0 0 4 3c2.337 6.003 1.003 10.836-4 14.5z"/><path style="opacity:1" fill="#153169" d="M264.5 382.5c.838.342 1.172 1.008 1 2a106.296 106.296 0 0 1-20 1v10h18v4h-17v11h19v3h-23v-31h22z"/><path style="opacity:1" fill="#3c5784" d="M270.5 381.5c1.291-.237 2.291.096 3 1-1.975 9.946-2.642 20.279-2 31a91.123 91.123 0 0 0 19-1 43.836 43.836 0 0 1-1-2h2v4h-21v-33z"/><path style="opacity:1" fill="#526891" d="M445.5 378.5c2.306 3.585 3.639 7.585 4 12-2.306-3.585-3.639-7.585-4-12z"/><path style="opacity:1" fill="#597097" d="M231.5 387.5c-4.433-1.801-9.1-2.467-14-2v11h11c-3.798.983-7.798 1.317-12 1v-13a84.902 84.902 0 0 1 13 .5c1.256.417 1.923 1.25 2 2.5z"/><path style="opacity:1" fill="#8c9bb7" d="M198.5 385.5c2.797.467 4.131 2.133 4 5a802.777 802.777 0 0 0-4-5z"/><path style="opacity:1" fill="#f1f1f4" d="M231.5 387.5c1.592 3.89.592 6.89-3 9h-11v-11c4.9-.467 9.567.199 14 2z"/><path style="opacity:1" fill="#123168" d="M273.5 382.5c.994 9.152 1.327 18.485 1 28h15c.304.65.637 1.317 1 2a91.123 91.123 0 0 1-19 1c-.642-10.721.025-21.054 2-31z"/><path style="opacity:1" fill="#8595b2" d="M270.5 381.5c1.384-1.301 2.884-1.301 4.5 0 .5 9.327.666 18.661.5 28 5.526-.321 10.86.012 16 1h-17c.327-9.515-.006-18.848-1-28-.709-.904-1.709-1.237-3-1z"/><path style="opacity:1" fill="#19356c" d="M122.5 381.5c5.159-.318 10.159.348 15 2 3.182 1.693 4.848 4.359 5 8h-5c-.299-3.142-1.966-5.309-5-6.5-9.768-1.051-14.768 3.449-15 13.5-.004 3.955 1.33 7.288 4 10 .453.958 1.119 1.792 2 2.5 3.053.179 6.053.679 9 1.5-.363.683-.696 1.35-1 2a76.926 76.926 0 0 1-10-1 579.57 579.57 0 0 0-6-5 29.417 29.417 0 0 1-2-7 73.314 73.314 0 0 1 1-12c1.688-3.688 4.355-6.355 8-8z"/><path style="opacity:1" fill="#536791" d="M359.5 386.5c.241 2.398-.426 4.398-2 6-.241-2.398.426-4.398 2-6z"/><path style="opacity:1" fill="#5a6f97" d="M177.5 392.5c2.579 3.97 2.579 7.97 0 12v-12z"/><path style="opacity:1" fill="#a7b1c6" d="M265.5 384.5c-5.574 1.953-11.574 2.62-18 2v8c5.195-.321 10.195.013 15 1h-17v-10c6.755.293 13.422-.04 20-1z"/><path style="opacity:1" fill="#7a8bab" d="M114.5 389.5a73.314 73.314 0 0 0-1 12c-.658-1.293-.992-2.793-1-4.5-.092-2.821.574-5.321 2-7.5z"/><path style="opacity:1" fill="#697ea1" d="M143.5 397.5c-5.119-.603-9.785.064-14 2-.904-.709-1.237-1.709-1-3 5.195-.321 10.195.013 15 1z"/><path style="opacity:1" fill="#1e396f" d="M143.5 397.5v1c-.986 4.47-1.319 9.137-1 14a168.167 168.167 0 0 1-8-1.5c1.323-.816 1.989-1.983 2-3.5 1.424-2.015 2.09-4.348 2-7-3.213.31-6.213-.023-9-1 4.215-1.936 8.881-2.603 14-2z"/><path style="opacity:1" fill="#afb9cb" d="M270.5 381.5v33h21c-7.148.992-14.481 1.325-22 1-.328-11.512.005-22.846 1-34z"/><path style="opacity:1" fill="#7588a9" d="M231.5 399.5c-.418.722-1.084 1.222-2 1.5a72.367 72.367 0 0 1-12 .5 84.902 84.902 0 0 1-.5 13c-1.749 1.053-3.249.72-4.5-1h4v-14h15z"/><path style="opacity:1" fill="#9aa6be" d="M531.5 404.5a31.568 31.568 0 0 0-2.5 9c-.383.556-.883.889-1.5 1 .56-2.301 1.06-4.634 1.5-7 .377-1.442 1.21-2.442 2.5-3z"/><path style="opacity:1" fill="#213a70" d="M177.5 392.5v13c-4.265 7.792-10.931 10.792-20 9-10.805-6.318-13.639-15.318-8.5-27 7.953-8.601 16.619-9.268 26-2 1.903 1.941 2.736 4.274 2.5 7z"/><path style="opacity:1" fill="#f6f6f8" d="M159.5 384.5c12.296.553 16.796 6.886 13.5 19-3.193 6.623-8.36 8.79-15.5 6.5-7.307-7.32-7.807-15.153-1.5-23.5a19.602 19.602 0 0 0 3.5-2z"/><path style="opacity:1" fill="#b2bbcd" d="M263.5 395.5c.951 1.419 1.284 3.085 1 5h-17v9c6.522-.323 12.855.01 19 1h-20v-11h17v-4z"/><path style="opacity:1" fill="#ceb2b2" d="M851.5 403.5c-.241 5.194-.907 10.194-2 15a98.432 98.432 0 0 1 .5-14c.383-.556.883-.889 1.5-1z"/><path style="opacity:1" fill="#536791" d="M143.5 398.5a112.97 112.97 0 0 1-.5 15c-2.044 1.272-3.878.939-5.5-1-1.823 1.247-3.823 1.914-6 2 .304-.65.637-1.317 1-2a42.769 42.769 0 0 0-9-1.5c-.881-.708-1.547-1.542-2-2.5 5.282 2.966 10.282 2.633 15-1-.011 1.517-.677 2.684-2 3.5 2.668.567 5.334 1.067 8 1.5-.319-4.863.014-9.53 1-14z"/><path style="opacity:1" fill="#9fa9c0" d="M177.5 405.5c-.402 4.24-2.568 7.24-6.5 9-4.644 1.274-9.144 1.274-13.5 0 9.069 1.792 15.735-1.208 20-9z"/><path style="opacity:1" fill="#687b9f" d="M115.5 408.5a579.57 579.57 0 0 1 6 5c-3.232-.272-5.232-1.938-6-5z"/><path style="opacity:1" fill="#4e6690" d="M241.5 381.5c7.852-.325 15.518.008 23 1h-22v31h23v-3h1v4h-25v-33z"/><path style="opacity:1" fill="#677b9f" d="M121.5 413.5c3.307.551 6.64.884 10 1-1.122.656-2.455.989-4 1-2.383.139-4.383-.528-6-2z"/><path style="opacity:1" fill="#9e615d" d="M43.5 418.5a406.954 406.954 0 0 1 5 36c-1.463-2.703-2.296-5.703-2.5-9a296.084 296.084 0 0 1-2.5-27z"/><path style="opacity:1" fill="#516891" d="M526.5 420.5c-.158 4.341-1.158 8.341-3 12 .084-4.337 1.084-8.337 3-12z"/><path style="opacity:1" fill="#ceb4b4" d="M849.5 421.5c-.349 8.551-1.349 16.885-3 25 .182-8.576 1.182-16.909 3-25z"/><path style="opacity:1" fill="#526992" d="M383.5 432.5a5.727 5.727 0 0 0-3-1c1.541-3.858 2.541-3.525 3 1z"/><path style="opacity:1" fill="#7486a8" d="M587.5 425.5c-.217 4.205-.883 8.205-2 12-.417-4.317.25-8.317 2-12z"/><path style="opacity:1" fill="#526690" d="M346.5 424.5c-.491 6.788-2.825 12.788-7 18a144.654 144.654 0 0 1 7-18z"/><path style="opacity:1" fill="#f9fafb" d="M380.5 431.5a5.727 5.727 0 0 1 3 1 231.361 231.361 0 0 0 7 24c.296 1.903.963 3.57 2 5l6 19v4c-11.716.644-23.049-.022-34-2a322.057 322.057 0 0 0 5-17c1.236-2.149 2.236-4.482 3-7 2.663-8.989 5.329-17.989 8-27z"/><path style="opacity:1" fill="#7e8dac" d="M463.5 433.5c2.054 2.508 3.054 5.508 3 9-1.446-2.754-2.446-5.754-3-9z"/><path style="opacity:1" fill="#485e8a" d="M523.5 432.5c.179 5.904-.488 11.571-2 17v-2c-.056-5.231.611-10.231 2-15z"/><path style="opacity:1" fill="#798aab" d="M339.5 444.5c.271 1.88-.396 3.213-2 4 .16-1.653.826-2.986 2-4z"/><path style="opacity:1" fill="#64789d" d="M585.5 439.5a607.032 607.032 0 0 0-1 42c-.666-5.657-.999-11.49-1-17.5-.202-8.392.465-16.559 2-24.5z"/><path style="opacity:1" fill="#7687a8" d="M390.5 456.5c1.713 1.135 2.38 2.802 2 5-1.037-1.43-1.704-3.097-2-5z"/><path style="opacity:1" fill="#965350" d="M142.5 463.5a37.877 37.877 0 0 1-9-4c2.006-.666 3.84-.666 5.5 0a20.673 20.673 0 0 0 3.5 4z"/><path style="opacity:1" fill="#63779d" d="M372.5 458.5c-.764 2.518-1.764 4.851-3 7-.334-2.991.666-5.324 3-7z"/><path style="opacity:1" fill="#8393b0" d="M470.5 455.5c2.318 1.685 3.318 4.019 3 7-1.412-2.104-2.412-4.437-3-7z"/><path style="opacity:1" fill="#a0635f" d="M48.5 456.5c1.08 3.127 1.747 6.46 2 10-.617-.111-1.117-.444-1.5-1a40.939 40.939 0 0 1-.5-9z"/><path style="opacity:1" fill="#b58785" d="M230.5 467.5c-1.533 1.745-3.533 2.745-6 3 1.533-1.745 3.533-2.745 6-3z"/><path style="opacity:1" fill="#8d9cb7" d="M521.5 447.5v2a510.54 510.54 0 0 0-1 42c-1.161-13.494-1.327-27.16-.5-41 .232-1.237.732-2.237 1.5-3z"/><path style="opacity:1" fill="#ab7673" d="M50.5 469.5c1.413 5.13 2.413 10.463 3 16-2.26-4.973-3.26-10.306-3-16z"/><path style="opacity:1" fill="#b58785" d="M842.5 475.5c.285 3.329-.382 6.329-2 9-.08-3.281.587-6.281 2-9z"/><path style="opacity:1" fill="#b4bccd" d="M398.5 480.5c.951 1.419 1.284 3.085 1 5h-36c-.237-1.291.096-2.291 1-3 10.951 1.978 22.284 2.644 34 2v-4z"/><path style="opacity:1" fill="#48608c" d="M323.5 484.5c-.763.768-1.763 1.268-3 1.5-7.993.5-15.993.666-24 .5a981.887 981.887 0 0 1 27-2z"/><path style="opacity:1" fill="#384d7e" d="M585.5 492.5c1.854 7.451 3.187 15.118 4 23-1.362-4.043-3.362-8.21-6-12.5a21.69 21.69 0 0 0 2-10.5z"/><path style="opacity:1" fill="#62779c" d="M520.5 495.5c2.055 10.099 3.388 20.432 4 31-2.061-10.105-3.394-20.439-4-31z"/><path style="opacity:1" fill="#96a2bb" d="M687.5 508.5c1.663 1.938 2.329 4.272 2 7-1.424-2.015-2.09-4.348-2-7z"/><path style="opacity:1" fill="#586e96" d="M285.5 519.5c-.284 2.377-.284 4.544 0 6.5 4.958.029 9.624.862 14 2.5a96.873 96.873 0 0 0-16-1c.065-2.928.732-5.595 2-8z"/><path style="opacity:1" fill="#95a3bc" d="M689.5 517.5c1.161 14.494 1.328 29.161.5 44-1.129 1.641-2.629 2.641-4.5 3a27.241 27.241 0 0 0 3.5-5c.5-13.996.667-27.996.5-42z"/><path style="opacity:1" fill="#ced0d9" d="M414.5 533.5c-.789-.283-1.456-.783-2-1.5-21-.667-42-.667-63 0a19.602 19.602 0 0 1-2 3.5v-5h67v3z"/><path style="opacity:1" fill="#8d9ab5" d="M524.5 529.5a719.188 719.188 0 0 1 6 28c-3.392-8.892-5.392-18.225-6-28z"/><path style="opacity:1" fill="#9e605d" d="M828.5 544.5c-.028 3.416-1.028 6.416-3 9 .028-3.416 1.028-6.416 3-9z"/><path style="opacity:1" fill="#64769c" d="M306.5 542.5c-.561 4.676-1.894 9.009-4 13 .557-4.665 1.89-8.998 4-13z"/><path style="opacity:1" fill="#9e605d" d="M68.5 552.5c1.777 3.005 2.777 6.338 3 10-1.777-3.005-2.777-6.338-3-10z"/><path style="opacity:1" fill="#5b7097" d="M506.5 560.5c1.777 3.005 2.777 6.338 3 10-1.777-3.005-2.777-6.338-3-10z"/><path style="opacity:1" fill="#9aa5bd" d="M606.5 562.5a33.512 33.512 0 0 1 7 12c-3.566-3.244-5.899-7.244-7-12z"/><path style="opacity:1" fill="#67789d" d="M198.5 570.5c.334 2.991-.666 5.324-3 7 .207-2.741 1.207-5.074 3-7z"/><path style="opacity:1" fill="#63789d" d="M533.5 571.5c2.069 3.544 2.402 7.21 1 11a72.032 72.032 0 0 0-1-11z"/><path style="opacity:1" fill="#566d95" d="M431.5 583.5c1.753 2.646 2.753 5.646 3 9-1.753-2.646-2.753-5.646-3-9z"/><path style="opacity:1" fill="#acb7ca" d="M686.5 597.5c.709-.904 1.709-1.237 3-1 .331 21.507-.003 42.84-1 64 .655-21.36-.011-42.36-2-63z"/><path style="opacity:1" fill="#5e739a" d="M188.5 598.5c.023 4.264-1.31 7.931-4 11 .962-3.895 2.296-7.561 4-11z"/><path style="opacity:1" fill="#8392b0" d="M323.5 606.5a86.704 86.704 0 0 1-5 14c.509-5.203 2.176-9.87 5-14z"/><path style="opacity:1" fill="#9d5e5a" d="M807.5 609.5c.09 2.652-.576 4.985-2 7-.09-2.652.576-4.985 2-7z"/><path style="opacity:1" fill="#576c95" d="M182.5 616.5c-.361 4.415-1.694 8.415-4 12 .361-4.415 1.694-8.415 4-12z"/><path style="opacity:1" fill="#bbc0cf" d="M655.5 624.5a67.278 67.278 0 0 1-12 10c3.252-4.284 7.252-7.618 12-10z"/><path style="opacity:1" fill="#97a3bc" d="M757.5 628.5c-.58 2.249-1.913 3.915-4 5 .58-2.249 1.913-3.915 4-5z"/><path style="opacity:1" fill="#a5afc4" d="M177.5 631.5c.023 2.1-.644 3.933-2 5.5a63.644 63.644 0 0 0 4 6.5c-5.697-3.152-6.364-7.152-2-12z"/><path style="opacity:1" fill="#91a0ba" d="M179.5 643.5c2 1.333 3.667 3 5 5-2.667-.667-4.333-2.333-5-5z"/><path style="opacity:1" fill="#526992" d="M737.5 656.5a21.614 21.614 0 0 1-4 5c.17-2.704 1.503-4.371 4-5z"/><path style="opacity:1" fill="#5a6c95" d="M457.5 663.5a31.447 31.447 0 0 1 5 4.5c3.317.498 6.65.665 10 .5-3.409 2.46-7.075 2.626-11 .5-1.964-1.451-3.297-3.284-4-5.5z"/><path style="opacity:1" fill="#66799e" d="M222.5 669.5c4.761-.376 9.095.624 13 3-4.624-.263-8.958-1.263-13-3z"/><path style="opacity:1" fill="#b07f7d" d="M115.5 669.5c1.406.473 2.073 1.473 2 3-1.406-.473-2.073-1.473-2-3z"/><path style="opacity:1" fill="#5e749a" d="M272.5 671.5c-1.109.79-2.442 1.29-4 1.5-9.842.825-19.509.658-29-.5 11.027.213 22.027-.12 33-1z"/><path style="opacity:1" fill="#9c5d5a" d="M117.5 672.5a598.896 598.896 0 0 1 3 6c-2.475-1.187-3.475-3.187-3-6z"/><path style="opacity:1" fill="#b07f7d" d="M121.5 680.5c1.406.473 2.073 1.473 2 3-1.406-.473-2.073-1.473-2-3z"/><path style="opacity:1" fill="#7687a8" d="M224.5 689.5c1.903.296 3.57.963 5 2-2.198.38-3.865-.287-5-2z"/><path style="opacity:1" fill="#60749b" d="M229.5 691.5c2.286.095 4.286.762 6 2-2.51.446-4.51-.22-6-2z"/><path style="opacity:1" fill="#697ca0" d="M235.5 693.5h430c-136.336.689-272.836 1.356-409.5 2-7.064.161-13.897-.506-20.5-2z"/><path style="opacity:1" fill="#ccb6b8" d="M203.5 785.5c4.204 1.533 7.537 4.2 10 8a45.26 45.26 0 0 1-10-8z"/><path style="opacity:1" fill="#c8a9a9" d="M262.5 826.5a9.108 9.108 0 0 1 5 1 1666.011 1666.011 0 0 1 17 10 105.449 105.449 0 0 1-22-11z"/><path style="opacity:1" fill="#d3bdbe" d="M325.5 852.5c4.415.361 8.415 1.694 12 4-4.305-.735-8.305-2.068-12-4z"/><path style="opacity:1" fill="#a8706e" d="M373.5 864.5c2.398-.241 4.398.426 6 2-2.51.446-4.51-.22-6-2z"/><path style="opacity:1" fill="#b28280" d="M523.5 864.5c-4.047 1.76-8.38 2.76-13 3 4.015-1.873 8.349-2.873 13-3z"/><path style="opacity:1" fill="#bf9a99" d="M382.5 866.5c3.989-.384 7.655.283 11 2-3.925.07-7.591-.597-11-2z"/><path style="opacity:1" fill="#bc9291" d="M395.5 868.5c4.914-.138 9.581.528 14 2-4.891-.032-9.557-.699-14-2z"/><path style="opacity:1" fill="#c9b5b7" d="M409.5 870.5c21.66.682 43.327 1.015 65 1-8.66.666-17.494 1-26.5 1-13.036.184-25.869-.483-38.5-2z"/><path style="opacity:.125" fill="#69100b" d="M406.5 899.5c.667-1.333 1.333-1.333 2 0h-2z"/></svg>